<?xml version="1.0" encoding="UTF-8"?>
<svg version="1.1" xmlns="http://www.w3.org/2000/svg" width="964" height="964">
<path d="M0 0 C318.12 0 636.24 0 964 0 C964 318.12 964 636.24 964 964 C645.88 964 327.76 964 0 964 C0 645.88 0 327.76 0 0 Z " fill="#000000" transform="translate(0,0)"/>
<path d="M0 0 C2.04885222 -0.00571721 4.09770127 -0.01268664 6.14654541 -0.02079773 C11.66121526 -0.03859609 17.17572484 -0.03758592 22.69041467 -0.03185534 C27.31707511 -0.02874373 31.94370563 -0.03487779 36.57036179 -0.04089409 C47.49729174 -0.05489432 58.42414343 -0.05341598 69.35107422 -0.04199219 C80.57269675 -0.03051856 91.79408005 -0.04458443 103.01567107 -0.07138866 C112.69779194 -0.09363813 122.37983823 -0.10016221 132.06198281 -0.09431225 C137.8237066 -0.09096314 143.58527718 -0.09322009 149.34697914 -0.11056328 C154.77025399 -0.12617836 160.1931781 -0.12191754 165.61643982 -0.10325813 C167.58988573 -0.09961202 169.56335849 -0.10256218 171.5367794 -0.11314392 C188.89880522 -0.19902754 205.39524312 2.16398031 221.76831055 8.15405273 C222.73091797 8.49839355 223.69352539 8.84273437 224.68530273 9.19750977 C232.41440157 12.03306004 239.72525675 15.39556378 246.96264648 19.30493164 C249.25038792 20.52813971 251.55793803 21.7077094 253.86987305 22.88452148 C261.33405119 26.70514154 268.62009713 30.49073089 275.3737793 35.49389648 C278.98164137 38.09987071 282.71405782 40.49577327 286.45581055 42.90405273 C287.19613525 43.38132813 287.93645996 43.85860352 288.69921875 44.3503418 C292.73325339 46.94636542 296.77806779 49.52481566 300.83081055 52.09155273 C304.81121577 54.62064098 308.76907237 57.18255468 312.70581055 59.77905273 C313.72030273 60.44678711 314.73479492 61.11452148 315.7800293 61.80249023 C316.88797852 62.59526367 316.88797852 62.59526367 318.01831055 63.40405273 C318.01831055 63.73405273 318.01831055 64.06405273 318.01831055 64.40405273 C313.06831055 64.40405273 308.11831055 64.40405273 303.01831055 64.40405273 C303.69893555 65.62092773 304.37956055 66.83780273 305.08081055 68.09155273 C305.5382666 68.92291748 305.99572266 69.75428223 306.46704102 70.61083984 C307.51365193 72.49536541 308.58097628 74.36851545 309.66723633 76.23046875 C313.97159829 83.80825496 316.94071967 91.30385707 319.28173828 99.69555664 C319.82842826 101.64555531 320.4048929 103.58489345 320.98510742 105.52514648 C322.89418787 112.08652692 324.33909871 118.57081003 325.1171875 125.36376953 C325.20163683 126.09709723 325.28608616 126.83042494 325.37309456 127.58597469 C326.2122859 135.40133453 326.34623286 143.17946662 326.35424805 151.03295898 C326.36070734 152.56217053 326.36743774 154.09138096 326.37442017 155.62059021 C326.38625826 158.79445253 326.39011462 161.96820708 326.38891602 165.14208984 C326.3887124 169.16135196 326.41611992 173.17991059 326.45046043 177.19900608 C326.47293751 180.34705137 326.47674744 183.49493201 326.47569656 186.64304924 C326.47801732 188.12308128 326.486635 189.60312045 326.5023613 191.08307076 C326.6612674 207.56218514 323.94133267 224.21982946 312.26831055 236.71655273 C307.97824584 240.72718794 303.18712011 243.65761631 298.01831055 246.40405273 C297.09018555 246.90936523 296.16206055 247.41467773 295.20581055 247.93530273 C275.24438795 257.13321314 247.20519176 256.08528248 226.85180664 248.6081543 C213.28552099 242.94011535 204.35664081 233.61651546 197.80737305 220.54858398 C194.88589961 212.60853985 194.71020434 205.20930814 194.67456055 196.81420898 C194.65221396 194.8289259 194.62985662 192.84364286 194.60688019 190.85836697 C194.56935965 187.39449289 194.54419645 183.93053011 194.51831055 180.46655273 C194.48739248 176.33303528 194.45418359 172.19962993 194.40637207 168.06626892 C194.37750432 165.49975303 194.35698458 162.93312537 194.34606934 160.36647034 C194.2359584 150.72362079 193.07038609 142.79696125 188.76831055 134.15405273 C188.2062793 132.99389648 187.64424805 131.83374023 187.06518555 130.63842773 C182.85207192 123.98106497 176.32375405 119.65309866 168.66913605 117.8223381 C162.62297416 116.86828773 156.44536127 117.10891947 150.33764648 117.11352539 C148.75004258 117.10753393 147.16244158 117.10072697 145.57484436 117.09317017 C141.2791791 117.07556479 136.98359363 117.07081707 132.68789577 117.06953859 C129.99888476 117.06811322 127.30989378 117.0638363 124.62088776 117.05854416 C115.22486594 117.04006123 105.82890072 117.03187128 96.43286133 117.03344727 C87.69868936 117.03464786 78.96476482 117.01355717 70.23065543 116.98195994 C62.71188573 116.95573667 55.19319653 116.94508252 47.67438149 116.94635808 C43.19266055 116.94686598 38.71115962 116.94127862 34.22948456 116.92000198 C30.01041611 116.9005175 25.79177525 116.90056418 21.57269096 116.91503525 C20.03288835 116.91711193 18.49305825 116.91249125 16.95330238 116.90031433 C6.68415373 116.82442578 -5.70451749 117.04833362 -13.61450195 124.67749023 C-25.18728215 139.29225837 -25.43854438 153.95418371 -25.38012695 171.74780273 C-25.38215127 173.92533465 -25.38506569 176.1028659 -25.38882446 178.28039551 C-25.39323093 182.82933041 -25.38687091 187.37808779 -25.37280273 191.92700195 C-25.35571206 197.73366175 -25.36556224 203.53990542 -25.38352013 209.34654999 C-25.39440335 213.83863412 -25.39089084 218.33062094 -25.38313675 222.82270813 C-25.38114728 224.96275381 -25.38354956 227.10280856 -25.39057541 229.24284363 C-25.43305434 245.81529128 -24.57547695 260.09150774 -13.48168945 273.40405273 C-6.32019343 279.13324956 1.85353745 280.71728175 10.8243866 280.65560913 C11.56777875 280.65857927 12.3111709 280.66154941 13.07709008 280.66460955 C15.54610281 280.67219363 18.01487366 280.6657784 20.48388672 280.65942383 C22.26378031 280.66217662 24.04367268 280.66585826 25.82356262 280.6703949 C29.64850208 280.67848802 33.47338314 280.68067996 37.29833031 280.67844772 C43.36627802 280.67560215 49.43411044 280.69001628 55.50202942 280.70742798 C72.75475311 280.75432594 90.00746928 280.77836402 107.26025391 280.78491211 C116.79548173 280.78868375 126.33057914 280.80688479 135.86575109 280.84000647 C140.89938857 280.85678276 145.93278905 280.86612748 150.96645164 280.85706711 C190.97840083 280.79106558 190.97840083 280.79106558 208.01831055 285.40405273 C209.14700058 285.68388504 210.27569061 285.96371735 211.43858337 286.25202942 C213.91111896 286.87668372 216.33441232 287.5820233 218.76831055 288.34155273 C219.55206055 288.5677832 220.33581055 288.79401367 221.14331055 289.02709961 C226.12313076 290.54000856 230.41427932 292.60281866 234.90869141 295.21606445 C237.84130244 296.86750356 240.91584358 298.10526465 244.01831055 299.40405273 C257.15826613 305.57492722 268.93419607 313.21657068 280.66967773 321.71411133 C284.18812108 324.24578127 287.75475277 326.70472824 291.33081055 329.15405273 C291.96801025 329.59144775 292.60520996 330.02884277 293.26171875 330.47949219 C297.95254093 333.69209645 302.66640642 336.86981118 307.39331055 340.02905273 C308.03051025 340.45541016 308.66770996 340.88176758 309.32421875 341.32104492 C312.58832275 343.50256289 312.58832275 343.50256289 316.01831055 345.40405273 C316.01831055 346.06405273 316.01831055 346.72405273 316.01831055 347.40405273 C312.05831055 347.40405273 308.09831055 347.40405273 304.01831055 347.40405273 C304.88456055 348.95092773 305.75081055 350.49780273 306.64331055 352.09155273 C312.32037627 362.54860069 316.84475967 372.9274565 320.01831055 384.40405273 C320.24640065 385.16789276 320.47449076 385.93173279 320.70949268 386.71871948 C322.71852725 393.65030885 323.9072019 400.45374842 324.68310547 407.62280273 C324.80950755 408.78662476 324.93590963 409.95044678 325.06614208 411.14953613 C326.40891147 424.67586984 326.44194272 438.19826396 326.38835549 451.77641678 C326.3767464 455.42825416 326.38117003 459.08008296 326.38310242 462.73193359 C326.38397547 468.84648321 326.37310846 474.96091985 326.35449219 481.07543945 C326.33326362 488.08695445 326.32983693 495.09830544 326.33605415 502.10984612 C326.34179617 508.94263693 326.33605056 515.77537159 326.3248806 522.6081543 C326.32030583 525.4784451 326.31932894 528.34870075 326.32146645 531.21899414 C326.3382401 569.05808669 326.3382401 569.05808669 321.89331055 586.84155273 C321.57571777 588.13150146 321.57571777 588.13150146 321.25170898 589.44750977 C315.69004311 610.9080306 305.92511431 629.10246031 291.01831055 645.40405273 C290.3015918 646.20327148 289.58487305 647.00249023 288.84643555 647.82592773 C268.79715741 669.08117749 238.94647114 682.89143778 211.5065918 691.54467773 C209.07889124 692.30691314 209.07889124 692.30691314 207.20543385 693.38852406 C196.81768055 698.21178271 182.90371167 696.69470491 171.734375 696.67871094 C169.71242587 696.683066 167.6904784 696.68825177 165.66853333 696.69419861 C160.20957216 696.70751648 154.75068055 696.7081752 149.29170632 696.70563531 C144.71725579 696.70456038 140.14281903 696.7094624 135.56837147 696.71424073 C124.76529693 696.72531164 113.96225715 696.72578737 103.15917969 696.71972656 C92.0557933 696.7136925 80.95253382 696.725989 69.84916908 696.74729663 C60.28011916 696.76497713 50.7111094 696.77090374 41.14204377 696.76765889 C35.44294574 696.76585567 29.74393819 696.76838513 24.04485512 696.78237343 C18.67914889 696.79505206 13.31363871 696.79291385 7.9479351 696.77996254 C5.99300187 696.77761865 4.03805439 696.7802516 2.08313751 696.78858566 C-13.32788045 696.84948124 -27.90106864 695.43338659 -42.73950195 691.01342773 C-45.17269608 690.2880128 -45.17269608 690.2880128 -48.54418945 690.02905273 C-52.6582166 689.2810478 -55.72050256 687.65902689 -59.39575195 685.71655273 C-61.79015104 684.50126861 -64.15521178 683.52698629 -66.66918945 682.59155273 C-103.01365519 668.37227819 -131.37261407 641.10440113 -147.03930664 605.62817383 C-149.14587238 600.65646039 -150.68366732 595.63859993 -151.98168945 590.40405273 C-152.15539062 589.71456543 -152.3290918 589.02507813 -152.50805664 588.31469727 C-153.07984069 586.0150876 -153.62903342 583.7112872 -154.16918945 581.40405273 C-154.33652588 580.70465576 -154.5038623 580.00525879 -154.67626953 579.28466797 C-157.42643748 566.9067847 -157.1555592 554.10716852 -157.18481445 541.49389648 C-157.18764183 540.66025637 -157.19046921 539.82661625 -157.19338226 538.96771431 C-157.20825046 534.56424787 -157.2175604 530.16081321 -157.22192383 525.75732422 C-157.22742122 521.24671232 -157.25151165 516.73640027 -157.27989578 512.22588253 C-157.2986298 508.71943836 -157.30373324 505.21306536 -157.3052597 501.70657539 C-157.30825744 500.04461574 -157.3161866 498.38265646 -157.32944489 496.72074699 C-157.45875785 479.28242837 -154.75727187 464.76155122 -142.3762207 451.66186523 C-138.86540406 448.35150304 -135.16668948 445.78582115 -130.98168945 443.40405273 C-130.33586914 443.02635742 -129.69004883 442.64866211 -129.0246582 442.25952148 C-111.15950108 432.54466008 -85.24808807 432.75821385 -65.9309082 437.49389648 C-61.71405928 438.79525516 -57.85598459 440.29080084 -53.98168945 442.40405273 C-52.76932617 443.0344043 -52.76932617 443.0344043 -51.5324707 443.67749023 C-38.74226487 450.76792593 -31.38821953 460.90859247 -26.90844727 474.71069336 C-25.53660332 480.39188884 -25.71773564 486.13975212 -25.73785973 491.95321465 C-25.74353267 494.07162583 -25.73416265 496.18950522 -25.72065735 498.30787659 C-25.68388532 504.32620596 -25.66486573 510.34435388 -25.67626953 516.36279297 C-26.59069847 545.78926965 -26.59069847 545.78926965 -13.98168945 571.40405273 C-4.92555707 579.22525798 6.76971461 578.83674656 18.08129883 578.77636719 C19.6855391 578.77879924 21.28977784 578.78252256 22.89401245 578.78742981 C27.22447985 578.79678431 31.55471907 578.78746025 35.88516855 578.77409768 C40.42978324 578.76272764 44.97438761 578.76689487 49.51901245 578.7688446 C57.14658304 578.76972565 64.77406443 578.75868541 72.40161133 578.74023438 C81.20741068 578.7190545 90.0130796 578.71556126 98.81889927 578.72179633 C107.30955985 578.72749932 115.80017472 578.72183429 124.2908287 578.71062279 C127.89589156 578.70599073 131.50092634 578.70509688 135.10599136 578.70720863 C139.35289698 578.70909825 143.59967064 578.70093602 147.84654617 578.68514824 C149.40091913 578.68092197 150.95530551 578.68004363 152.5096817 578.68283844 C163.4145422 578.70896497 163.4145422 578.70896497 174.01831055 576.40405273 C175.16686523 576.03086914 175.16686523 576.03086914 176.33862305 575.65014648 C184.60436674 571.94666392 187.62966935 564.73007467 190.83081055 556.65405273 C192.85423829 551.23205218 194.13300054 546.33575344 194.17221069 540.53787231 C194.18511139 539.10863686 194.18511139 539.10863686 194.19827271 537.65052795 C194.20253265 536.61673508 194.2067926 535.5829422 194.21118164 534.51782227 C194.21935913 533.41952591 194.22753662 532.32122955 194.23596191 531.18965149 C194.2607674 527.55539485 194.27732402 523.9211773 194.29174805 520.28686523 C194.29707172 519.04142818 194.3023954 517.79599113 194.3078804 516.51281357 C194.3291032 511.27127227 194.34823003 506.02973677 194.35950279 500.78816414 C194.37568524 493.31631845 194.4087307 485.84499737 194.46590364 478.37334931 C194.50958152 472.46006588 194.5252791 466.54689647 194.53163528 460.63344955 C194.53831538 458.13383129 194.55345183 455.63421966 194.57752609 453.1347084 C194.73220888 436.09602968 194.62215081 420.11205604 183.01831055 406.40405273 C175.82545194 399.3956264 167.04835885 398.25105613 157.42582703 398.26602173 C156.68132146 398.26320045 155.9368159 398.26037917 155.16974956 398.2574724 C152.68525854 398.24916721 150.20081233 398.24779161 147.71630859 398.24633789 C145.93022029 398.24166637 144.14413318 398.23652225 142.35804749 398.23094177 C138.51452942 398.21967845 134.67101902 398.21123548 130.82748985 398.20482254 C124.73561627 398.19410922 118.64379758 398.17385275 112.55195618 398.15170288 C95.22948746 398.08989947 77.90702157 398.03588112 60.58447266 398.00268555 C51.0148809 397.98426699 41.4453809 397.95523757 31.8758567 397.91468084 C26.82000792 397.89372491 21.76427422 397.87816995 16.70837975 397.87587357 C11.94189787 397.87370615 7.1756552 397.85762651 2.40924644 397.83148384 C0.67322107 397.82436727 -1.06283353 397.82215205 -2.79887009 397.82558632 C-18.04117154 397.85089137 -32.3306935 395.81570665 -46.98168945 391.46655273 C-47.83118164 391.22743164 -48.68067383 390.98831055 -49.5559082 390.74194336 C-54.54283224 389.29474259 -59.2279685 387.53225423 -63.93115234 385.33007812 C-66.06248076 384.36756727 -68.21737114 383.56507164 -70.41918945 382.77905273 C-87.59949132 375.95510106 -103.69506417 365.13335313 -116.98168945 352.40405273 C-117.7293457 351.71956055 -118.47700195 351.03506836 -119.24731445 350.32983398 C-137.06871703 333.47427665 -147.66921275 310.85182449 -153.23168945 287.34155273 C-153.61973755 285.70887451 -153.61973755 285.70887451 -154.015625 284.04321289 C-154.25708252 282.97506348 -154.49854004 281.90691406 -154.74731445 280.80639648 C-155.06877441 279.39088501 -155.06877441 279.39088501 -155.39672852 277.94677734 C-156.94499246 268.56995846 -157.13334958 259.12481739 -157.14282227 249.64086914 C-157.14778717 248.42599823 -157.15275208 247.21112732 -157.15786743 245.95944214 C-157.16986889 242.66125432 -157.17740637 239.3631017 -157.18187809 236.06489611 C-157.18483545 233.99088693 -157.18894496 231.91688294 -157.19338226 229.84287643 C-157.20701981 223.31497117 -157.21670333 216.78707818 -157.22058415 210.25915968 C-157.22504866 202.79633316 -157.24253731 195.33369127 -157.27158475 187.87092078 C-157.29341475 182.05466824 -157.30329971 176.2384668 -157.30462527 170.42217386 C-157.30565871 166.97084606 -157.31124482 163.51969256 -157.32944489 160.06840897 C-157.46921832 128.91347399 -155.29802255 92.15532844 -134.98168945 66.40405273 C-134.32168945 66.40405273 -133.66168945 66.40405273 -132.98168945 66.40405273 C-132.98168945 65.74405273 -132.98168945 65.08405273 -132.98168945 64.40405273 C-137.93168945 64.40405273 -142.88168945 64.40405273 -147.98168945 64.40405273 C-142.36026978 58.78263306 -142.36026978 58.78263306 -139.6887207 57.10717773 C-138.76397949 56.51851929 -138.76397949 56.51851929 -137.82055664 55.91796875 C-137.15185547 55.50087646 -136.4831543 55.08378418 -135.79418945 54.65405273 C-134.2738907 53.69041878 -132.75441445 52.72548644 -131.2355957 51.75952148 C-130.4017334 51.2302002 -129.56787109 50.70087891 -128.70874023 50.15551758 C-125.72767728 48.24091188 -122.77328446 46.28931572 -119.8215332 44.32983398 C-97.06013608 29.23401565 -74.23521559 15.46243378 -48.29418945 6.52905273 C-47.51237305 6.25472412 -46.73055664 5.98039551 -45.92504883 5.69775391 C-30.81268625 0.73380542 -15.76487224 -0.04023533 0 0 Z " fill="#00FD50" transform="translate(422.981689453125,123.595947265625)"/>
<path d="M0 0 C5.61 0.33 11.22 0.66 17 1 C17 1.66 17 2.32 17 3 C11.39 3 5.78 3 0 3 C0 2.01 0 1.02 0 0 Z " fill="#004315" transform="translate(273,187)"/>
<path d="M0 0 C0.66 0.33 1.32 0.66 2 1 C0.04761147 3.00612399 -1.91137822 5.00492433 -3.875 7 C-4.43058594 7.57234375 -4.98617188 8.1446875 -5.55859375 8.734375 C-7.00134404 10.19450782 -8.4974374 11.60149298 -10 13 C-10.66 13 -11.32 13 -12 13 C-10.44997253 9.11602311 -7.99523379 6.97020381 -4.875 4.25 C-3.96492188 3.45078125 -3.05484375 2.6515625 -2.1171875 1.828125 C-1.06917969 0.92320312 -1.06917969 0.92320312 0 0 Z " fill="#00CD41" transform="translate(288,569)"/>
<path d="M0 0 C-1.5830577 4.2742558 -4.50568404 6.26531794 -8 9 C-6.68994234 5.06982701 -4.75047804 0 0 0 Z " fill="#00310F" transform="translate(413,246)"/>
</svg>
